<?xml version="1.0" encoding="utf-8"?>
<!-- Generator: Adobe Illustrator 17.0.0, SVG Export Plug-In . SVG Version: 6.00 Build 0)  -->
<!DOCTYPE svg PUBLIC "-//W3C//DTD SVG 1.1//EN" "http://www.w3.org/Graphics/SVG/1.1/DTD/svg11.dtd" [
	<!ENTITY ns_extend "http://ns.adobe.com/Extensibility/1.0/">
	<!ENTITY ns_ai "http://ns.adobe.com/AdobeIllustrator/10.0/">
	<!ENTITY ns_graphs "http://ns.adobe.com/Graphs/1.0/">
	<!ENTITY ns_vars "http://ns.adobe.com/Variables/1.0/">
	<!ENTITY ns_imrep "http://ns.adobe.com/ImageReplacement/1.0/">
	<!ENTITY ns_sfw "http://ns.adobe.com/SaveForWeb/1.0/">
	<!ENTITY ns_custom "http://ns.adobe.com/GenericCustomNamespace/1.0/">
	<!ENTITY ns_adobe_xpath "http://ns.adobe.com/XPath/1.0/">
]>
<svg version="1.1" id="Layer_1" xmlns:x="&ns_extend;" xmlns:i="&ns_ai;" xmlns:graph="&ns_graphs;"
	 xmlns="http://www.w3.org/2000/svg" xmlns:xlink="http://www.w3.org/1999/xlink" x="0px" y="0px" width="256px" height="256px"
	 viewBox="0 0 256 256" enable-background="new 0 0 256 256" xml:space="preserve">
<switch>
	<foreignObject requiredExtensions="&ns_ai;" x="0" y="0" width="1" height="1">
		<i:pgfRef  xlink:href="#adobe_illustrator_pgf">
		</i:pgfRef>
	</foreignObject>
	<g i:extraneous="self">
		<g>
			<g>
				<path fill="#FFD561" d="M160.524,76.556c-5.5,0-9.959,4.459-9.959,9.96l-0.161-5.072c0-5.238-4.246-9.485-9.485-9.485
					c-5.239,0-9.486,4.247-9.486,9.485v2.298c-0.566-4.694-4.559-8.334-9.406-8.334c-5.242,0-9.487,4.245-9.487,9.482v0.229
					c-1.468-3.669-5.049-6.266-9.243-6.266c-0.068,0-0.133,0.01-0.199,0.011c-0.051-0.001-0.103-0.009-0.153-0.009
					c-4.317,0-7.954,2.889-9.104,6.836c-0.324,0.982-0.506,2.03-0.506,3.122v20.031l14.496-0.096l2.297,12.44
					c0,0.673,23.157,2.104,23.157,2.104l-13.302,12.538c0,0-26.131-0.752-25.854,0.581c1.561,7.504,5.337,14.233,10.589,19.533
					v35.559h59.764v-40.936c0,0,7.082-5.934,6.004-40.888c-0.178-5.788,0-23.164,0-23.164
					C170.485,81.015,166.026,76.556,160.524,76.556z"/>
			</g>
			<path fill="#283182" d="M251.532,110.121h-10.421V86.72c0-5.583-4.544-10.124-10.13-10.124
				c-6.316,0.005-9.285,0.008-10.696,0.013v-5.024c0-6.348-5.593-11.512-12.465-11.512c-6.873,0-12.466,5.164-12.466,11.512v0.126
				c0,1.586,1.284,2.871,2.87,2.871c1.587,0,2.871-1.285,2.871-2.871v-0.126c0-3.181,3.018-5.769,6.725-5.769
				c3.706,0,6.723,2.589,6.723,5.769v50.439c0,1.586,1.285,2.87,2.871,2.87c1.585,0,2.871-1.284,2.871-2.87V82.35
				c2.96-0.006,10.7-0.012,10.698-0.012c2.418,0,4.385,1.965,4.385,4.382v64.99c0,2.417-1.967,4.383-4.385,4.383l-10.698-0.003
				v-20.287c0-1.586-1.286-2.871-2.871-2.871c-1.586,0-2.871,1.285-2.871,2.871v31.044c0,3.18-3.017,5.769-6.723,5.769
				c-3.707,0-6.725-2.589-6.725-5.769c0-0.374-0.071-0.732-0.2-1.059c0.129-0.327,0.2-0.685,0.2-1.058V85.49
				c0-1.585-1.284-2.871-2.871-2.871c-1.586,0-2.87,1.286-2.87,2.871v24.631h-18.226c-1.423-3.891-4.612-6.932-8.605-8.13V87.492
				c0-7.074-5.756-12.831-12.831-12.831c-3.122,0-5.984,1.123-8.212,2.984c-1.871-4.449-6.273-7.581-11.395-7.581
				c-4.673,0-8.748,2.609-10.848,6.446c-2.163-1.863-4.971-2.998-8.044-2.998c-4.596,0-8.607,2.526-10.736,6.259
				c-2.194-1.755-4.972-2.813-7.995-2.813c-0.067,0-0.131,0.01-0.198,0.011c-0.051-0.001-0.103-0.008-0.153-0.008
				c-5.6,0-10.334,3.746-11.846,8.863c-0.408,1.249-0.635,2.58-0.635,3.965v12.166c-3.584,1.137-6.174,4.066-7.256,8.166H59.88
				V71.584c0-6.348-5.592-11.512-12.466-11.512c-6.873,0-12.464,5.164-12.464,11.512v5.024c-1.413-0.005-4.381-0.008-10.7-0.013
				c-5.584,0-10.126,4.541-10.126,10.124v23.401H4.468c-1.586,0-2.871,1.285-2.871,2.871v12.445c0,1.586,1.285,2.871,2.871,2.871
				h9.656v23.401c0,5.583,4.542,10.124,10.126,10.124h10.7v5.013c0,6.347,5.591,11.511,12.464,11.511
				c6.874,0,12.466-5.164,12.466-11.511v-23.936c0-1.586-1.285-2.871-2.871-2.871c-1.586,0-2.871,1.285-2.871,2.871v23.936
				c0,3.18-3.015,5.769-6.724,5.769c-3.707,0-6.723-2.589-6.723-5.769v-59.754c0-1.585-1.285-2.871-2.871-2.871
				s-2.87,1.286-2.87,2.871v48.987l-10.7,0.013c-2.418,0-4.385-1.966-4.385-4.383V86.72c0-2.417,1.967-4.382,4.383-4.382
				c0,0,7.741,0.005,10.702,0.011v10.963c0,1.586,1.284,2.871,2.87,2.871s2.871-1.285,2.871-2.871V71.584
				c0-3.181,3.016-5.769,6.723-5.769c3.709,0,6.724,2.589,6.724,5.769v57.545c0,1.586,1.285,2.872,2.871,2.872
				c1.586,0,2.871-1.286,2.871-2.872v-0.82h18.269c0.998,4.366,4.163,7.906,8.301,9.438c1.53,7.576,5.164,14.578,10.565,20.335
				v32.104h-6.191c-1.586,0-2.871,1.285-2.871,2.871c0,1.585,1.285,2.871,2.871,2.871h34.738c1.586,0,2.871-1.286,2.871-2.871
				c0-1.586-1.285-2.871-2.871-2.871h-22.806v-33.263c0-0.757-0.299-1.482-0.832-2.021c-4.579-4.622-7.789-10.23-9.389-16.325
				h25.172c-0.873,1.799-1.644,3.772-2.279,5.947c-0.445,1.521,0.429,3.115,1.952,3.559c0.268,0.078,0.539,0.116,0.805,0.116
				c1.243,0,2.389-0.813,2.754-2.068c5.694-19.504,23.726-19.861,24.517-19.866c1.583-0.004,2.863-1.288,2.863-2.871
				c0-1.586-1.284-2.871-2.87-2.871c-0.023,0-0.234,0.003-0.604,0.024c-0.262-0.077-0.533-0.132-0.818-0.132h-27.021
				c-3.646,0-6.612-2.968-6.612-6.614s2.966-6.612,6.612-6.612h36.892c3.374-0.04,5.627,0.572,6.906,1.838
				c1.246,1.231,1.89,3.413,1.979,6.626v11.702c0,9.416-3.747,18.384-10.553,25.25c-0.532,0.539-0.831,1.265-0.831,2.021v35.558
				v0.002h-7.463c-1.586,0-2.87,1.285-2.87,2.871c0,1.585,1.284,2.871,2.87,2.871h18.375c1.585,0,2.871-1.286,2.871-2.871
				c0-1.586-1.286-2.871-2.871-2.871h-5.169v-0.002v-34.399c4.691-5,8.024-10.903,9.825-17.263
				c5.517-0.468,9.648-4.491,10.704-10.213h17.683v36.422c0,0.373,0.071,0.73,0.2,1.058c-0.129,0.326-0.2,0.685-0.2,1.059
				c0,6.347,5.593,11.511,12.466,11.511c6.872,0,12.465-5.164,12.465-11.511v-5.013h10.698c5.584,0,10.128-4.541,10.128-10.124
				v-23.401h10.421c1.586,0,2.871-1.285,2.871-2.871v-12.445C254.403,111.406,253.118,110.121,251.532,110.121z M7.339,122.566
				v-6.703h6.785v6.703H7.339z M155.693,80.404c3.909,0,7.09,3.18,7.09,7.088v13.938h-7.774c-0.11,0-0.214,0.021-0.32,0.034
				c-0.273-0.006-0.533-0.021-0.814-0.019h-5.269V87.492C148.605,83.584,151.784,80.404,155.693,80.404z M136.086,75.807
				c3.648,0,6.615,2.967,6.615,6.613v16.891c0,0.321,0.064,0.623,0.161,0.911v1.224h-13.314V85.867c0-0.455-0.027-0.901-0.076-1.342
				V82.42C129.472,78.773,132.44,75.807,136.086,75.807z M91.497,101.188V89.317c0-0.62,0.092-1.22,0.253-1.789
				c0.927-2.741,3.483-4.733,6.516-4.817c3.577,0.083,6.461,3.011,6.461,6.606v11.871c0,3.646-2.968,6.614-6.614,6.614
				S91.497,104.835,91.497,101.188z M60.133,115.863h17.675v6.703H60.133V115.863z M117.006,126.157h11.426
				c-2.505,1.676-4.973,3.854-7.164,6.677H91.015c-4.116,0-7.465-3.348-7.465-7.464v-10.733c0-1.965,0.417-6.208,3.897-7.236
				c2.146,3.668,6.116,6.145,10.664,6.145c2.495,0,4.815-0.749,6.76-2.027c-0.139,0.742-0.22,1.503-0.22,2.283
				C104.652,120.613,110.194,126.157,117.006,126.157z M111.293,102.857V89.789c0-1.457-0.256-2.851-0.704-4.154
				c0.124-3.539,3.035-6.381,6.605-6.381c3.322,0,6.072,2.467,6.535,5.663v14.394c0,0.22,0.029,0.432,0.076,0.637v1.498h-6.8
				C114.945,101.445,113.003,101.96,111.293,102.857z M168.202,132.413c0.207-1.67,0.322-3.356,0.322-5.059v-10.832
				c0.005-0.062,0.02-0.12,0.02-0.182c0-0.2-0.015-0.383-0.02-0.579v-0.224c0-0.033-0.008-0.067-0.009-0.101
				c-0.081-2.698-0.163-5.112-1.251-6.803c-0.97-1.506-0.834-1.118-0.834-1.118s0.486-0.062,1.552,0.409
				c2.533,1.121,4.216,3.761,4.216,6.711v10.733C172.198,128.346,170.942,131.338,168.202,132.413z M194.975,122.566h-17.034v-6.703
				h17.034V122.566z M248.661,122.566h-7.55v-6.703h7.55V122.566z"/>
		</g>
	</g>
</switch>
<i:pgf  id="adobe_illustrator_pgf">
	<![CDATA[
	eJzdfXdfMkuz4H4BvgOoKIjA5GBWEBPmnEVB5REBCee85/6xn32relLPTE8gnL1397y/+1zs7ulQ
XbmrutOp04v8Vr3z1siLBS6ZSKdLvUZt0OktJ0lpcr/VGvYHPSzKnGeTvFrgoNHWvvZiNrxu9PrN
TnuZVJHKCn6duay1m7Vkddj+HGaTmSyUXzYHrQbUfBT6f31mraHg23JtAOWcVOT4Iq8lBX6ZV7G6
1v6r1u83/wsqeUXURCjb7gzb9Wb7c7vzHyhMKlxSkKUkr2P7veZ5o+9uUOB0ldfN/wQZ2hdkVRAk
s0SEr8WCzgkadKEUJEFVZY78x0N/5c778KfRHpz2Ou+Nfr/UaXV6/eVk6Z9aO3lU+4SaWvKu0Wp1
/k5ut2rv3wkAi/xSabYaAIGf2iDJiwiPrX1eeNkeNlv14+HPWwNgI8gKFosvpMurPvQF3eJvLFZf
9n+g5KIxGMA6YECE6fnuNj0NKCT/yzycNz6bZH8Ajk9Zs9tep/tT633Dt3lYcBL/T5Bl8q9SkI1G
l42fbgsAbwBKUKGWFzTyr/3bbAkrIq3yvCwk84LMQ73EqUlZ5K02DqwafzUbfy8njzvthgGQrd7g
wthDSeI441+j5nzYavSu2s0BTJRARDcgctSpN1rQ3v6+0qoRQJD/8c6/RoPLWu+zMYC977SGA4KK
mjUCQLxa+6eB28YbA5x0G+3LzjWZY16CjZdk7AwWzSUV+CkopHsFNk+wB+Sdf41+sRfsw+oc0e8U
Nu2k1/xstpfNqakvu71m3dlIVUhqxj9k9gXNxDVeFzhd0OOWGLirKrys8ZIQp8RYOkBxMGi0TVAA
UpaOKCTjCkcXsIqddr3U+cGt7CO5AXa1AfFanU+jzv5NauDzYdeACPn7BXb9tNdsY5+JY1KjvZy2
hlC12+sMu/vtj04iYzCW68Y7cA9AjHry5O0P/AFcgiB+8rJXe4cO4G+7TaHW7GZDu4PF9RpJoxK+
JH9a/z/663LjA0jW+dwo3Wn/1Wh1ulS3dkmtXU/e1Hrd6K5PW7V2rZck5XbP1eZfUFMDSDl9O2Ux
OgWs6wJwyCekiWeAkAZUVYyBaoMv4G6Ndr1v92386Z64URbd38U74mAvud0b9r+Sl51Oy+7WXWX3
bhaTUmz/P2OMU/JB+6RtAMg/ktnAOxIws/9xo0Dr4BGg8n9y76Vaq9X87NW6X8131gCMensko24U
xPrn563TavZ/HHyiSk5rvUHzvdW4+Kc/aPzE3tzkTr0JTC6AjEPbXPxdG7x/VZtvvVqv2QilPtyA
j2a7Drh/MWwOGg6AOj9dVJmSF1+1boMsY/BVIS0v7A7lF2D9NHPP58O5/sgf6EYN6gqDf1qNfqJ4
2O783SZ/JJcTmQfg0LVha/CUTRaPaz+N5FKieNEEDaZhNeGSJwmOkth88rYGBecJrgBKHQhPjdNE
SVc4lKGKqisaqEQCSEdJk0gJJwi8rkmipkgSlugcr0icoMu6JogKb3Z9u5WwVBD44x/44wB+/IGi
v5M8lzxKPjxxyToU354nyCTqiaLB6FcSySKsAv4/WS8AyFltJMhOay0Q1Q2ywtO3Ka/Jq0USCN7+
V8KnXZ6+J0637clacxplY6vQHb2bPliQBuNgEM8ZVQZJYjf/yyyGjjyFAZ2bc7V0WTBLaon0S9H6
G5AM/2q+IzRqvX+Mv2+PqsegrzIrV5KZ//y02lCdB0LuNd+GgwbI0SVsutXr1f7vdDGF/qlW719g
yfQabaONkCzuA2TsWvxn8A8yEqzNzLf7L3/Vev0VINsL6L396W76V601tNpieT+gXRtI3mhmzqTv
+uv/Uei8NYmpyscADgARlO1jAoZoCNGtl/5719gGOzDG+lqd9+9GPc7arJZT2v4JV8+Hrj7WvjZr
b61GHMSP3Mn/lwh9+a/YpI5N/5uxGJf3PuwPOj//vZzs38PD5X4NtSmUecA64qLjv04XMJf/QVP5
/4FK+x9//w+Wxv/NZNBvNd9j8+J/bxYff/93T+GnMajVgRdMOg99wnnM1k3lOw4qUo2xhDPHRnf4
Vq9R2yI+Lz8+elAwz1mO8mTxvFFrnXbARjhvtC4754Z7FyeeOe30m/gVqeWNTjVOEeEr8/85H5MP
iLPb6MCkVeKR50YYRjCBArbSW6fWqydRc7xqN98BEBZwHKWPN/qFPrbO3QApN/vdVu2fo1rv2266
3elA0/2+1bdpoR37N9pqQSBo1MkCetKNzsGMStasCb6jOz8pJHuWxqbIsigHt+RHaPnZa1hYFtn2
zcYocpBkN7VMO+OoCY8pPAABA5JPnvYa/Ubvr0bysvGfAfHF1N6arebgHzdYSVvbWCS+8WS11v4c
olP7tNNFnw3ZP8Qw4tU30Iz8pPD74nqXHOFsd/5ze2d+8nDUqDeHP0nnlOPJv/esCZhO/0bPWMUg
SSGIzFkogkA7avS/kue1/qDRa/4Xsfip0YwvRM71xclw0B0OIr7xkpeoWF10a/W6DUED3D+1/ren
qNZq9j2b0u92TBJXLYFX7zYLRpFklsDW92zOsLWf3BoOOvZUG55BCOQs7pH8boON0YGVfRqONpqh
+tHL15We7Na6APB+82fYqjmQCBitCfCqDRqAow1iDrolOXY36NXa/W4NmOr7PzCnZj3Zt5cQSXoO
6kc2pSjKwmnqsADPsl7Om59fAzzSaFw3+02DCi4GtYEN0Lxs4YjD+nydNBAsfzUqrU6nd11rN/tf
sG7S3k9+XPLDRuH3VrMLs0VF9T/AKT4BtBZucBQV0p/0yI7n/yInScm3Gkz93ZysJuH5pXm+xqla
UhN5xc+4g0FQarRaO/8ZNKKm3bX4R+evRq+LLidz1hqv41mqqkt89LjVxocx7GWnS8FKVXm+YB5o
q5oE4sfoNEZvLNCPNCUHFO45BWKPIwP32/XGfy4a75123TWwJo0Ei+3OAIwyGhy6bIND0wUx5qba
HXr3dKRpOfDwzSsuSCrNXt8aWlFt/BR4Oe7OkkmwtjZoCoQMw2ia/ZkNsqCvTO2DNdrJx0e/YU5L
kjVVCpvarsOWJDmoW5xNpfbe2Gp/tswpCIrAB3WMzXfdCkRIy/NGPRwWGMQwBr4gvCzlzlygFgg4
jDeADQXlbeDwMFnjChyFIgHfEpxwsyo+cnLvNRuSAcu+tDV5WgNjDh4JQtJq2xFW8RaGu0OvSxRU
RQ1DJmqEQEiTqZx0a++2ihfWLWkdC0dJSw+SBs8Cl+aaBBcgXkBTaTXbjeQAtFNLTwvqFNnbBVP/
Uagea+1BMwmKV82UUxkjtovSUb+39ivDVstSNs0gMKhlK31u2/2i0dqrDeDbagdwDBXSPmVMBLQF
2Dd6+2W6JV19iS4aHDUerPqDXufb8iwE74HBrOhN4AN3F0Fb6gwtTBSCe93DmJZOe6+B+BATb236
kTVd40N4lYPgGYuCktYPj5GBHIU2MtAaYTY0rRF6wpGNb5r1wZe1TwCI906v3qj7sSNZPO4MXNXW
6qqgulnG5n6ZgVj+Ty3mUnScR8U/nbfCW3PwU0M1zGWa2BtEN+9+/nwXAJca9c7HR+GNyHGTxwU2
J8F23uY8Yy7uzof9BmDuNv5pERp9zu2x7uh+QGNvNQggXPa+b7z+oFWoGz0SvbNh0mcmvHv8zGzv
OFjifNOt/0B1qx17Ut167M4N/7v9BWuru92e2SxkC6CNObpJULrM3Fho97eDw5okBLX6osiC14Ja
NTG2rdACCo3XctAxLU9ZVcNb9pzhNY4Pb0sjaAZwDXhhPfn2T7LcAx7SC98E7MXZWSbxvHugFtyI
BlpIVx1KUQzpzNPMt+mkFTGjg9sgn6g3+s3PNmWzCwENCXW8YeBMRI+kYeej2WrEaFfrG4wqFk3g
V67t8K+61SsgPYa3ABMMtn6ATpWQtWBL23x9w3BnywPDbN2rF0DIYYi0i90yG36AVf/V6f2Xie4B
rbqmJzQMF8ion4VQ5DPb/EX5Ddit+qj/Wn1FtvsrfI39927r/Z9grmS0eW/3w5AY2gzAzrJcRMHr
g31q1brRcDDbhcydCKxGG5WrML6LrfoYvhMLc0lzg087hBHnG0D5ASYRmDMpCGzOjU2BxaOi5+ZF
IfI4os17z2LHgU26wF+b7Y9ORLMeFVIVNSj65d5qvX7IPro1Cke8xGg8oJYU1ZaSMTHUIGcaMRrb
04jRlpoGi4o+2oNCvRXO8ow23d5Hpx3G77BZf/hm0aPI2qM+LPSvRitE1+iD5om6ashG9wvtxmfN
OZkKaIReT9Bf++FYg+1A3LTD+2rx2FvNNhbZ+98v9L9q9UavEQIlbNQYoHnVhrnZgGD25m6lsvj8
f7oFl4dW5FiDQqueV5UnZxmslp8MpZ/VzpSCjg3N2k+nnWE/hrcEsRY6JFrZxMimOTqrYaf7HsJV
SIN+yI6TBvVhsEIDDfrDLkGvv7+ag4ZFkPFOnTw9haskvXqvHy1PSKuPYfs9BKOMNqZhb2FVhBAh
39Tabev4yDFcfa2izIj3H0q1yvTPd7eT+zslhdcVJS8UGAezno+7PUopZG0KtEEDjD4TYbWxzhbe
f/75DgYo1bAz+GrQB2PkfBNGSW5ZzZNsN4rsHC2eNv/TaJ02eh8Nq6HrLJEXklv7yd1erY4aIMmV
MQ4Xw44TjY+q6JzBrAD8iBy3ej9yj8Qnd04vRh7K+CrGWPShXrvjnN8km21yDoU6aSOUWKizWbLA
kPNYtzcOjyzRDbfl4hD0ERPpr4RHYiXzSOzcdSTmbXpi+r4uaN8XF9Tq0uaEqnO0bjQxTlGLRnZW
cpvm2O6Dc4Qyc1R/s+B1cIFdOlN0gw7bMGAXvUNG9yFbRIPCaBwOCxfYTjynf7y3L2+DmH4ytinZ
alnnu/0wZkc+AM0VbOPPEHlG9xveqv/d7IJ92A7hRtisB5pTr9/A1fTCW6Kvyz5WimETW8umVuRm
dAedN0yKYbE53xnIV+fvvWbdi9y+Zu1a14fYF7W/GkfD1qAJKL3l3gouotVWq3XRQAdfwxsgcXG9
i1hvZFT5626teVj6KpQBEr83+zRPs2oqoCuiC54RokDGMRKEPQuDGgylOGz0vEwSx/r8cG8mlJUv
y74yHNk5PBKcip02bC3N7eyKn7dG3SA2o05y6kjiiNMdvQiS5EROGLo1L12a87gALd9IgzVRjCG8
A/bpnEYxH306iT7ujBJERSPTBLfSqksUsZwuQZrfuijt72tyuYGzwV5z6/Krmtu4fityxdxRPrfx
NRDxlyCtni2LdsWZ/YtUrIgbl4Pt8oe++703e75WK39wd+t2rZBbO1e+Ullxby2VLy6cJ9Kp3Pr3
aip7fK+nlr6aUPX6UUjlhssXqaWj23Iqzx0JXHHtLkOGl1Ol7JnUF/pHMLnyt7Rx8roubmuiptwr
P/er+ddKR70RubpTy+29NEqJdK+3vva2tdQ9Ptg81Pvr2t7qTaHSuZeud3qP91z5vg==
	]]>
	<![CDATA[
	cndZWdtae+cXt9S2OYo4N9rSAGLG4no9KbV0/byfymt5LZV7L1zgqjQs20ktvdTlVLb53UplB9tN
XFqWXpq0dM4VpYtze2Rj4eZaXtOtRBpbds3dWLuTDLBud/rHxi/zw2ofplGGAW6/VW8TnGbvsfYg
FcSqNsyt76bmHaAWin1tN5EWhnevb1Cw2+Lq83dlutuV/m3vKVs+wom6pgeghm9z99KMsLwIn/EE
lCfUoE9XStkZNJH2DCufid+9oEFfe0+/g6uAQUtvynktL7AGhd3vazd80Fr3JD299c0edHVmvr8w
1+myBu0NXwtzmbe580cyqLEv1LBchdtYDRhUmZ3TVj509qDS3SNXudw+Yw2aSPdnKt3l9Enz6Jy1
Vm53tlMNHHThoCodBYH3qvf4LhzgoFnAZB+AZ27EtDxYgA+ljm9Xl+fWzUFPFxY8eypdqrstMigQ
19uOMyhS5Ur/qfd0/UZwPusfdPlFvqp/FpmDPucvjwMHVYsfFwtk0ETaMyzsKpBofznXZw96qj5L
t1/VJdag/YX1O541aCINw8pf2YXtxi5rrbird1xF546Zg85UPtW58x/hhDUoV3l6qpBBkSd716rM
pr/bR6WgQWvc7tLrNXvQXW5roZFR7zyDmnysN5hd2jDXepfPeIhm41haezQG3Xn8rrgGvV/lqmqe
x0EXfYPuNTqEUhNpGFbtetdafbivBQyqzKrf9cpz0KBl7mjxSfcMCqMYw+7/Lm/+6R2fMwe9WFkQ
Awc9bFyIXMCgD3nu4iU7A6Mw13q41zh+uM9mmINeL7Q/Awe9+Dozua8zKI5iDrvLXR92V9mDVsX0
VWVzdY09aPdgJnDQ65fdmQGR+8y1nnA3G4dl9qBH6zsvz2dPT8xBn06+9z2DklHMYf/cyfVKwKCP
GvfUb+XZgx7/6f6c6JrIHPRlPw88OXCtvfRFLhUw6N0Vt9P8OWAOqh3nZ1KbT/kdGHT5lwwKUszh
SsMX9cUc9E3Meogme1+tLZJBhYX1zJ57pVXudXF5Cwdd8kmalz+/ifQ8f/ByCcOu9byssN+ZXzMH
HWzkPCtNgaDPGoNu3/H7bka41Otfradw0AIZFNZCc6X9vLXW0sAzaG5lb0YxBt3gD/OuQeWvpa50
/EoGFeeWS4fuQeeQ89fe2jgs511rb6vRsfD3IOXlv/Kf5W1z0OWzgge8M53G66Uh3hq1F8WjXch7
V/PPnWWn3lN7d8b/XAfVfqHuNWTVmpwfWG95PuBr2IP5XClt1v5pqJ5aReNfrHn3vzVvbftr5jaR
DqxXT/eXHwNrNWHx/DW49qv2vODUeiCmzG4J8/fvgV9Xc+0NIbj27eRjhVVLIKbMnsy8v+0FfK3t
ze+tXvWN2o+FX93T91WuufLHrOVnlr21bwcXbQtijPrrcs7SMhm1N+m3Yiq49rG8vObU+iD2mn5W
5wK//jM47e4F1n5fC9tnrFoTYj/flfXnoK9huWcrcmDtgSCt3wbWvrffLqrBEJtPze8/LgbW7mwd
vTUCaw+EjRk+GGJbKWEuuxzwtbzH7awtWmtezqx4anOXZ/0Ns7ZUWPVS5d7l6+7iFque0Ozi3Ial
DrNqN+43T+haMM0oy7CUXyyhDrPwUHKMM9o0q7zIIaaZMJhDy7eUyh/od2D5/rnEfwpYVkktlc9L
+M8NsDp9DrVx0xg0OIw5Xu182+KbvRlhYe00b0oDPk1LiPVZEUn84McwdsA0o6ipeKS1F8CMvB0i
TwZzB0b8WLXHmy02196ywNtmdtDcybuYNT1oblX4PAsYVJmdveq2Hmi57wyL4vY+cFAQQX/4wEG5
ysfxBWtQk15QYL6z1oqD1ulBpYs5alDtePuCGrQ+Pz/rDNqf/WqcU3Jf9AB4/Xfu58EadLflGjR7
FzgogHdNYA1qauPEdrDXKnoAjLbDc8Cgd0/BK52p9CWX3HevldgOgYOi7fDFHnQ1VWANSmwxMmx1
IRDARCMJHBT1kUvXnjZ0a3jyy9x9ULZK9/Wf8JZGu+fhTzuynTL7+7xze0JzmICW8peJdya/2IY1
P27lKI+UQ7ivmR+3twfYf2XYI8wFwHKxafJk58Nic3Z5yflnvZupX5qmPvFXAVDXu9nVLuU/wg7W
9b25P2QO6/ruQxnYVm0HRxYti4+awPpO2vxn6ahjDkAUaGsAZzawtLWu0cTlKSNMb7v41Sin7X/O
3ZaF6fI6sZuXcZRdermvBxvWlK9O4c95NOaGixZ0DJ3f46g7IzbyPAVCD+S5AzmdJv8gSt5ETelb
32dNKZE2J/UyXADUPVoSFja4fcdj43FUEqALT8PtQwfobJDjP+bUpY7hU/KuEH0AqRjrI/9E7t8F
WK/ROzhrr28xcH2o+F4F7h9a4vF2EPev48HQSGCZXaF24e+MX9z+U4nqLA6yr+RtuT8xZu0+/obD
PREf8qAa3Y9JOW7aB2AJ2/f6wZjAcrOerMN6TLkP83necW+tOO5u7Dzu92gAQn+WJe5C3XnCfAJg
97xjgzdgNks7S8Y/JuwsT68fa+/ybqqk2TabKokvj7m0Ow9V2rsxytLEjevLo3BA477sHs7jvM8D
plLOxVlV47Qwb+6+D9l3yCjXnYkXhKbgLTUHmwjdHOY1Ow/Tuy0HbNNSl6/NLexFYWAAWHAUEzBc
IGCKX53cmoU7NiYThxAbxrynK9sPE68zN90t+kV+rcKiOuJRHJXuajO3w9CdnOWXrvgl/OfBXIt5
2uBDDOCMmZ3DwA21thP/ge10nNh+3KhVYBQPF6Q7OzmzJ0XNDNYy2GXOa333rc9aJGAy1G9yjcFV
0aeFhWxJzr8l9d1AGZdIBzIfNk5/a/1AhSBQY7RlpWt/QZt5GIQKJu/+Bu3uLkJkz63BegRTbO2p
vuvm016xlDBQ1xG8IZMabBwETOnk3JxNwJRo34UxqWCVzt66WPunz3l0fp9iEa7zu/avHa7QGfsH
tlicHdw9/ZkEGSiJjJ1dtKeFWS5xYvCxCTq7CzdiRoNYhF43GsReelODGM3RxoBY1xWIoPZ8hutg
3cuEaCk2ina8N4opeB7Ax7Zvv1JxDRs2VQ42ZqZGldu3v3MxDGVD5z/PUae5DOhs8IfVuNBhzSaR
FrbvZuYnhM563xbLgTzZ0SnYquFeNFOImAiOAlOJb+IFTySECyTScWHi1i1Hm4ihXexFk73HMswF
SM3PPXRdP3hQxbHFWLahcajpOLnPnR6Fp/5bgXJnw699xPidUA+JdwAj1MAHO9AE4zg1KOaB5GFG
qrj3cp8oHiPYw8FTmo2y92MzgKdBOsLPQuFYOAPYH4UBeNfnsvdhhQujA50NcpemwJQvHqwN0uX/
7OOB4E2M9SXSkTtYHvA7T/3d+P4Mv01uWnyA/V/i1IDlI3Cm7yIWsBgkHogMBJNdwHKTuDinfxfd
JH7gJXGmkebyLgV4SABrZyb1JRw4LlnnzMI9n9hGxc+BW38P9JC4nLJBS1uYZGkG5z/AqIajSHs4
zL2xwR8M3WJZdMvKSAcHmTLgwa8w5oIoTD7wSdUx/D4/B3gwfOcBC0OKRQImytfnYQVgz7N1S4SO
EgM6FCtweRrcqvTm0Igfo5VpwIM4zsRoVfrQUaWD6CUG7JbP0uGzccSg5bcMEoTixpW6EI0REWLQ
oJdDryAca2nZwKUl0jG50qHPUB4Bzx1M7h56Jd9YC0q5RV6gry+UAWxcpeXRGYArCtoEzIvXTT+W
LguwsQVdKCbH02XxsGqBjt7AVUFZ1mPxjUt3JZhNIY7H27L42Ku+vfAeQY4n7Yg2Dp1Ny9+KXflJ
b1SejEQT45DCg6nu6HRr3wKFXlyMJ704ZqQV3TFmPwwKZPViaLAh/UxwUuH0Avb+yJIvsDP3+WCg
dhHrpALTCZYybn2zREJcAynHPBWN6fcqkdDV0cUN067EzoTCiGd8gaD801hEP0wAMAOOuUM5Wv87
6+No/e9cIkJ2x+VoAJjN34h9idbmbq8m4WgeDzx0NjWOduVwtPE1JfRLx+VoobQP+zYFjkZ23+0a
G7efcI6WiN/P5GevpJ+Q86Cl7Yx9jlNkUo57wzwWNDlHpg6FqKNDtpZiBnpZUYhg8fh841jmPoAd
O+YKD8FjMSHUzFAbZ6usJaDzk3DOGJvJAo7tPF6nJtbqrXndzQSfvcY0Gm+vx7Sl3fuC++YJaxqH
KWAvLsWe9iiO1k9oCISnl6BIFdKP36QeZzbLmfvQE95QldzbWZgjixU/FiYNYX05rzSEsnw45STi
S8PazDkzRGAki+/2Zjr6vdGVWxYG4lgcaXgT17ROpMNQ5PF3dP3ex+9g1xLpyaUh9hMuC+NJMdJP
TP0+TIqRfibW77EXliy07f3RpOHjbxgZ+mSh4bkKlYYv/pNiLBslCBD3JVAaLmdixmE5YRjs1ZMo
tZdeyJbQoAzQBWgaumXRtttGjk/dtyNpusa+BFL3bSzqjmTbJsRikXi0cQk7WWBReVCUWoBeA/C8
LsbDiGhPL5lUTIxgE5dbLGGUWqmQ9wmmUiF4yiMZacL2bX0YHDsaJ3LNPa/gUwC0+EYgLxKBMr1o
W+ws+vQmztkNdpVIi3Mrh9UpIHGpoMbyJwedDbj38iWOpm90FWgj34UG37owItaUBM+Z+IiBrwbh
OvJsXT5qMy0Lm/ZJvlz/M5Vvn70Yl6jkt8RnzJzbiZtDZ28nM4OO3BIwhRy68Ay6RHo6OXS+QV0Z
dAa3nDyHLjyDDrMFp5FDZ9BaUAadaVlMnEMXnkFnZgtOnEPHHNTOoGNlC46TQxeeQWfd3TFpDl14
Bp2T+zZZDl14Bh3ysWnk0HlZlDsemn1eOXoOnV+U0eHIxEMSlAl0ulCJsqBpmy04DwhHCQ92cU0q
ZEph8VMJUzWMlTFV6YcGPQW7mLwniWWv/hsJpyDt96HsyHorVmFMOHlcTP7wdgNKieg0vJVFF8Iy
4szW3jLhqWDkjA/T8P40rqeDT6w4LK/9EhMPVvIjrY86f/Enu7k9V0FAj55S0XMyMg7QzSlFea7C
JhWYNGd1EZ0yR3AsGmF3vHHVI3v9iCW+NIgbDBIeChLoNPZ6emO4jXdGDwVh5Ire5WcnTnZjREKO
l+w2SihIYE7iUncSV5Wdn1YM0flHAExwKAhlhiRi2EY7gRlaMW2arjuK4JX3n9m8Cb9ReB6PJ9cq
o5u97O18E5kBlJZHcaQk09rMkTfrMNxxRnY/yLYHYIWcZcdwnFluQ0sir39rXY+bBL6+mlI6jHGT
XpDaFZUH5skCC1S6xsjjG0ZJpBHy+N7C819mXU6r4NS0mZAY+BjXUbim9DUbNKVNKscqVkJTRAz8
CFEE9V23B5OhDsbev57jwQzULUfoLMrG2CH39MbrLCpFJmxe7lNR7CzK0Ii/SMe9OgWIhaeJjgix
qKsQIiDmyZ7Zvr3Lu0Od9gKzZ+LqslZuAnp9YxI7U8aHZ8vZN1FEdPE9EzGHV+GZxw==
	]]>
	<![CDATA[
	f15ZtE3Fje9Nzdj73HM7dll33djGXmAXUezB14GHw3zuhV+OQu/0CIly3pyR6B164eJaPEG0jylu
cZ0MQfBkmXBBdmUwOKJSY1lnMgydHxYUSecub0BIKP8yuVP43JNjVR6MYmYGZ/p44B6GyRHpR+Hp
cS6uY985zMpp6w8C5flI+tg+rmVKFP9n30PxLH0sHpxiunc8irYvPhkzx4rTQQHHKLRzq+NNijEl
IcaUqMjhsAy0kTwyoRl20pTgFJn3GjYpt0em4PfI/BwEemQCcCzAI3MwpkfGzWH4w7npeGTEueXC
fBzfRQyPzME0Ioigi8wUUgZ3T38mvk8J9jzaI5OIk4Y2sUcGT6v1X2kagAlJzvHlvIcFu2CSnpvk
YoaUWBLZk4e6cTng3MryYVQeapiyTN9EIW5c5WYnRIbuIcul445UiWm1gJCJlTpqu3RCJDIsbTkz
8dKIukvR/hgYiuljwd4lZ0GJ6Ly6ie8N6x5i1M0IYbNB25QKj9aLFT2IgJkkdZS2kg5DnaCRyXXe
QL1T6hzVxmQsjT58GDMfbvT7+sbJhws8S5pqPhyOMmkyanQ+XMw8iwnz4ew8C1dG3NjZIwH5cCNm
pI6ZD8fOFpx2Plw0t5xGPpyt9Y2fqhEjHy72PSQT5cMx9uVPY3Ha+XDuG9qt3KGJj3XMPLbJM+tR
vMU9HHJOq4NcltjZpDGRDue/7sSKiYzK+BJZ0PafWIWpASV/gMRY2eikn6VJ1eaSJ5whJE88up+p
ZHJhLEOg3TzSXaSoj2FyXbBDbNSIZ9S8Fj1EaOhjERsRkwyvAy1o9w1UkblMY57RMjyK2Nm0QpPv
uoQIJ9PGEdpxrMUIbbw0lduAjWzBckQiVhzygV6CySf23R0lJ75h9NlQGmwp/ErgkSK/PVcCs+8e
HOGKmeyS34eFqWcug5qRLxYvlgr9f7EBGMbHRr5aOCwjtTbzwkwjHSMjtTbzxnQYjJaRejOdjNTH
32lkpGIv08hIxXyxaWSkYj+TZ6RiL96M1KBroKPzt2589rUrYAG5ZWSYkZsM8wwyvA33a8WPtp0k
FY4lxaafChe4L1NNhXPugY9juI+bCseG2LRT4WLalROmwiViT2qSVDhfRMSYqXDhiiGVW30Xdrgy
2o3wJU+AhPdkZPS8OqZZ5DmxSaRjnNlgZ7Fu6gqKCXTd0gydTeSepCHmumI4+Cwp+nCBpLDFuV9t
1jyvDBAPb/2wI5z4wsG4TevOd9f3qDGotAfoy3gzbokdQ2LuAXkgc/3ka7d1XXspz9aHOxV9bvO5
crl+urNZHCyUKpcb6h15zrx8v9Pb3NpTLg9K24X3Umm7eIiPEFx0LWGUbnl9sKbPyZ2NFZJ3tpp6
CH65TTtbPnV7FN3JbivvJ0e0+5kaVP5aTK+mOkHJbrchGXb9mUq9SBOIJ9ntcjs4ww4f1a4FDfoa
mmG3m9epQb3vmS3n+vag3mQ3fGraftWQTgAz3uPLhCW78YXAQXOrKz9BGXbK7OyvMnwMzLC7ewjL
O/sJy7DrXF6yBrXe46s2vupBGXaNsFzCs9vgQXeOH3YpW8wL4Lm2uPISNOiZD5WAXM3hyS8Tz5cZ
u89uuRKrR+mxGt4ORzHzHU+NlqborCoMVdQi3Mqw5RWnYXepbVLRtjGv/c+1fWHyp/Od8JiNROw8
mliXuFNek7B3rH7DJxV7Su7r3CNjrkZ+SY6l/RqycpovybEEonGOHHHpelw4BYZIjhYPU47x4ohL
wQx9923MR+RYXRHUdOkw4+JB5GMjqMP4V8icVMRbA2FTouR+edRgypApeTzHE9DLbiPiGSIn2JXO
gJhONh1rht7ThMmz6Vi5dL43UybOpmM5vKy3OKeXTcfKpYt18+RI2XTB55XTzKYL4pbTzaabyGsd
O5uOZXwwMHnCbDqXkmDm0rlpfxrZdKxcOhaHmSybjmU3J6aeTcfKpbPPXqeWTWcqhq5cOivadnrZ
dKxcOscPM61sOtbuEq/1VLPp2Kei086mY00pQc1nOtl0rP1j3mw8UTYdK5cuXFMaJ5uO1VVixM6i
s+linvBOmE3n7QoxfloQC9cJR4RYjGy6+BCbJJuOlUtnnL5NM5uOlUvHfilvkmw6Vgf+nJFJs+ko
sNinJUE5I+Nn07F054T3QrKJs+lYuXQR74qOkU3H2qGQO7rHzKajl2vl0sWzKwPBETP9Jvjkfdxs
OtaCvHfaj5RN555SiAEYkpHqNgAZJ65/9uNe3RRhJe1HPVMZLxcLIPbU/40idhr8Ue/VsbWLab9X
F/vdhMj36uLmrA1yC+442HHhVB6EKxb+G3VCnnJzJyiMOiVL54/zVF3c9E7/E7TBmcIRcIrUADy3
nIVMKjiUYrQpIb2E+z9ZLNNtEW3wB32Pq1yc07seue+PP4rjBhvlmbtgnnwwtYvBfw68EBs7HjH0
mbvYvouJnrmz6SXsobvYaUpBz9yNFp887jN3nlsC2A/djeZ2YzxzF/3SRECYwkjP3FmyMvShO+/h
UfQzd3HvheseTuyZEzeu+LRbvowdgHgYI7MoEVPp7h5OEodvYjIsbi07cSJdYOThCLHWJJFuvKQi
TxZneuIM2ENWCMfoWWn4Nt1y5j6KcF1BZEFvpAJ0YiXBxMsnIjg2u+DNKMJLU8MDbWOd9+ye/njt
lzETxCKiwUeIhoLOYsUix4qGgs7iRHSHx5cTzjeVzMdR35i0cczbz8Q5taQXU+QFc8uY/QQHUY30
TuI0Hpq03kmcamLthTdogrybcNGe1q2A2BVDv2PkV8bJOIHZxmFm7pcmAiP3LmOCkjYkGSqE47nK
LvoteszFG/9uAG/20xQyU7z3HjPuVYidygCdVcOzIkZ4wRCqTmMcEke94Gfr75NlPsZNZAh/Ywj7
mfTVXOxlGrcEGM/JhSnxTnR6dD9uMhzlUTr/O4mhqQwjJzLkzN13k+H1dMjQ88Ld+PmVo7xwZ44S
TIZTeeHOOLMIfuNuFDIMfuFuxMzHMfOJGC/lTU6GvhfuJngpbwRbOvSlvGAyHPGFO+P1n+CbwiM6
82ZPBLxwFxV1EzOx9iY8vCkuH3v8nUTN8eW+TS2x9vHX+wrAmK+vxX4lPTzz8WgKeenQS2HymCvS
T4QNlYjbz0Tmk8UtfcE1Y+e3G8/lhcUojp7fvpxZ8pHhcsabmcyI64tFhrcjJTExvXDujLDnQGUy
dhKT/YLhcib4ebCRjpuwK683xwexuFebY2dxqDLYb+mGWDvG1XGx7MrbuGlMYUlML71AOUtGGS3H
9Xb0JCaSWx2sGjKuSySpUiMqhkHv8ZUKk8fZWaDEd9+ml+N6F3hiY+tj8XNc70a/mir4nqu76Tz3
aL2UN6Uc11KhGHiAk0j7OgvKcfWFYQRihG9K/juIcFJTeO7R9ADhNlRVXAsLCJbqhxlve2uX5W++
tF08uCnPNg4uyhu5i8u1zmtOgV+7p0Zu3+1jpS4srM+UDcFDHLs0xKzfrjS8441zelBXPlx/9vru
lHZVud9hWy493Hny4ai8pOA0vN7wdZkPHJSrcItBmX/K7Jx6nn2irVd3wtZjcMLhTKUrBg+6O3t/
5RmUcH7rHbb9t8Jn0Dts2ZDUtFM5OB+uv6DO96hYa9GT5ZjNbDy0AlLTsqEvztW8mX8kQtUG8OHq
acCgymxaOi6/BuXDvYQMujunuOjF+9Dd2ex9wKDaniu10jvouWdQI+7Cxt/D6+BBd3auKu5dncPa
JfuXmYI5XFwretoZEPO3FEtcjB6518XlrRjtAGLLncGOIyZh1XeSN2rBPq5hiM5SiPlE3QwWM3AS
gCpn3adB5bhhkzFeMVsLT23yeUgY2T+Gzl8eMbQqeEolZlwbdXNL3NSm/uix5GwdxufQjRdaxcyS
QrkeMxIyAk4XEQFo8bPSYoRWxc1Ki4jRjINPVlf0kVdETG9U1l3MKC3LsgiZlC9Oa/QpkSzO+c5I
cVphU2J7icegl05IlJY5G8ZLEx52tfO4vuhmVzsT+5hN6xX63o9xYBiRVxbInUd+++kuHxEKwzJ/
AzjMFNzLzzuOnj+2f2ykC+OC/WM70ziyft4hnuXQO4hiZWx2Y1xCm4gBmHGtFhYml2MaxXGCRrwH
rOYbdlO5BroyRRu5VhndGRzk58eEuxA9ayRHQK3i9/OPevOQ26ci/fpuXfjWetGvl8ZOJLsNu+Us
+o4IVypglN7G3F1WpEp9NzK/PW4mk55ysgXj3HMQnN0WdjNqDG3cNangYP0YiYC0dxQg+j03pVRO
95kiOeUZOxUw+tEroyvqlZmwzsLfNY6cl5ORip35XzYed5G+88qJOovK5RkFYhEnl6NBLOLkcqRF
VqXHQIj50oUDjdmRXtSj5MsYWYBxcwBdVDlyFqB/DuwcQJc2PnIWYMjJczx/cqwswLg5gJEvsAd1
MdKLesxoqNhZgHFzANn39MbNAowLT5asjJ8FGDcHMIaNHJIFGDcHMOL0LTwLcNOYjX9V3kf5jBhF
V+LBv/AoXyQmR2RtxXuUL+omiuk8ymdwmP1/+VE+z3tJ/9KjfAHvI0/5Ub5RvHDjP8rnvUvt33mU
zyXF/rVH+ZiaUlw4KSG6M5lN9N1Qo73rN9rdUOO+60ezKP+rfmPfDeV51y88eDEi6zn2u36hS8tM
Hqd0MJ27oWK96xd5N9RU3vULf9VvhPzKCXIhGDmJY73rx1LYnVf9PK+YTSFomPWq3ziZXKNHKwZn
co32rl/4q34Tv19pvus3md8y7rt+4Vl3ZJQpvOsXHq8fL0I1+l2/uPmVk73r56IHX8YME5PHeNfP
SdxjCbowfWyUd/3CdzIoK21K6e7mq34x/Pyx3vULl3Zxo6Cj3vWL/x7fxDnvga/6jfUe38gij/0e
3yQU6PTi8O7QE6sR3vWL5pbTeNcvPD3F8MBP/q5feFAB/ZIRN8G7fj5Qul71C90X6qQm6l2/8Ff9
2BlDo7/rF64ORmWlTSe905SVU8t7YL/qNzLtB7zrF64GMN/jG+NdP0YvS1G7P/q7fuG9RLzHF/td
v/BX/ULO+EbLe2iEvepH+NgU3vULf9UvkR6FDIPf9RsxK21qWdb0q35x+VjUu36TaeNx3/WL8x7f
5O/6hb/qN9p7fOOSj/c9vnHf9XP34r3mj52ZMvq7fixn2kg36sR61y/coCb3Wk/hXb/wV/0irNf4
yfChr/pRLxdP9K7fSLc2jf2unycd0XOeNf57fKN4s0Lf45s8Gd581W/SmCvrXb8Ad7YZUGNGqkz8
rl+cu9Mnf9cv3K/lfpNr/Hf9WOljjq3FkGJjvesXbrYbkcOTv+sXbrZ7qXLcd/1YEIsZCTnCu34x
7coJ3/WLFT048bt+PsXQ9aqfPcqE7/rZG8t81Y+6bX6id/3CE2ITUcZuzHf9wk9sKIhN9K6fe15e
5+TYOoznXb/ww4WI24Fiv+sX/qqfcW/P5O/6WVNiJ8QaZ+Kj35VSZAiH+0DhYOTwXg==
	]]>
	<![CDATA[
	xbnEdH33y3ejIikLPsO0Au/97yQyEhc9+GTAxPFhra91KZ5rqmzmUBm3FHstdBzAcMWThmJv8rHL
Fq32ez2h/5UCsXKQyj0cz3HF22/VaIL5VKm5o/X9Apdpp4rvD11J7H0dVABirSf97Goxk//JLmz/
bnN7n8dbs7/DbSX1WKuL8Ot1c05bGe7MH538nsu/33cPqlyQ3rWjym3hsNBLydVd6XX7/Ptqo35x
pNx8XTaO5d/rTONj7mYrK5X/zFyeHybS38ut1dtOYyPT/n1Rf9O9zbZynLo53liYEzO7SvrjYX8/
O/yafZA6j41lsrUks3P96vLiOlXIPW+mhM/f69yquLDJVbYPt7nKx/sBt6vMn/d6r3qm19dugF76
s8/KW19+ezi1UwEvc2vF/E1BrOozVtrbn2Kv/9jBx+b0Wfapryu7dOW++qJvvZ91kU1edO19wfck
h698enFrs3rAAhYBByx3MN/riXOp0JV+ZWoLjdPZ6/vL9bl2rwj7Mi9In8PZVj1Vx1zSAys5NDVc
6krHGK921CY5iamtyuVlmptr1KHstONW2Lse8oGlnZYcz6rpTzZkJfW+JbA1FiTWlXRpWL6vNG7J
85mlp93zW+W4VJ/ZLA5WDzaL/fpKRZ/9Pt252RSfAWzt9d3W9e1jIr21p6TeoJ/rX6tb4wHNDJ/7
VjGZ8e55c6Wa6pFVbf10qv2tw5ubl9zO9e0e/oLlnrYKmLS7ZBj16/Jdj1hOXHGQwViEl4FlIxfl
woL1i88Q3zHARG3Dn+oiyfsFhrPfhT/XlsifIMUeevBnqWB9VilWdoQjDbrd43LlpfSwktnb3+eX
Fr5eEmlroodZukof1OyKHF1Rzb3bFXm64llt2BVFuqJb+qRG4amq3e1fzC84XqTLrjJvVuPjJbri
U6rbFQXyviG/N7fJoUiY4/fyFZHI/WMeeFHnm9/bOBfhzzO677fPHML2bMlo8j6nLpvcC1ghotc2
/55f47FJEbOWfvj3jX0E25nZ6fvZlTHKGSa1rs4ivHOYXUwE05yQzUuo/V9SgBGyG5srOMoKHnif
b7cKn4tbp+8f1fLhfurCQUj7UKBExSrQ1qtFAttCdq+yOnqPrP4M+wV6PKuu2T1uy4PTucbu0732
uXUxnGvu3NdPOVwV7+Cv8DR83iw1a0WeK949ixZ6XUrUwssbqoEqBGI3eQJCoXxWQhl4U7QQ/wb6
fnvCt9lueFPrlW+INOjgL9H+JRkd7Kz8KPDnvdnfy3sF9/m+aOdYyfec/YvCNgyLbVoIdC/SFeXv
uZ3371+dK37/ka213JuPa3LZOY0TWhfpnSU9+4yYzF3P0c6a14x5pmosyPnHdP2Z3rp1+angDCrO
Z08QqE/wz91NBn/x9i/ULqiWR58SlkqM+ZxVXq/vSuWclq1Udo6uNVOmDn5krvG2rCB+FsS51dXX
ykv24d4jvl1vphgC3BT526DX5XZMBcXitZSY6G2oC8vzHUHaudn+vQZuuVjO6bK0avHN7gZUHB2U
h7XTExhFl9c2Kvrceb30dDC7t/4791P1Xl1gbtjBj8mzYL4GYddmDrKEzKwm17+I2AWEMQLrsY+1
uPsWcj5Cgdoj3JJkOJNUZBe3vJBI32js/JobL2/mSaI5hqODPrZ0bbLjxqm6aijLH1fLD+6bKGzX
7sfz5qN397ECOWyRwVpzBle1JvxkMvD1Uh5nmCFvQLx9b7dm2hU3XwVkUa/3Sq/fW3UwQ7vbJgXu
Lmdxc46IogbQ0XgDdsBLNdjdzxODlxIWBmxUJhwU10IY5dxmsXyw2uGgnxMOJ5AV51Y+t6y+rwQs
Q9jlPKnkJdrjDxKQ0uq4TGGF0pMZet1ASWWP7/VU7r2wif9sp5aEyrHxZ3b1eDm1dP28n8oXF85T
ubOZeay9SOW3xHX8p55aOrrdS2V7vaXUUuqV3ERx+31tKwLzhuOwcbqWQ2Fs3iGw81j5tVVIwuo2
d2qvO9+b7d/i6+b1wvnd1uXKn0x5/0E5AM6Xmdlc3agUbHXh1/RcEdWh+JXuLLnNj9iDlpqV+R6M
d/u72dnr3VVelvZmt04+V6tbl2VpLpEuf5z1zwmh9VNPC2Wunm6Xe721+1miTgjl95ON8UY+K3/M
d2eXxVL5LZGGpb+/hC/Ytdx2D3q8kLxWIOIQHhEvGPccmFc9HLWR9PLW+QvhWVy/3N4+Od18qpRl
+XXUkR/1wJGt+y7cY9Pc8v1lcXPl8eulXDh/7ZU+1tpvHqCHg1zc6qXK3nes/n0cW796WdzxWKUm
t9wl77cf/JiXZ1ReqOfcxW1N1JTZ5er55vJOo7n9ncmc7eydNvnN363iVnn/pwk2cqXc4rdNWpTK
TRBg5wOkyoWCtLf1M/pOs6ANmDwavDeWzwzDZn04n4q78ER6pKVHLpyNaMQDH3/pYy4c6WVlfd4x
8Lli7TfvnU9cNrq4MLuaWvrtVpGNVtGMPoSKPOhjyD4vUkvZTeC1i9tLqbyWf05lmy1gru2zR/ya
w+YbOKk5l5IQDwWQ1BPp8Yk9PvKRV2Y8Y183Nq8P1/YrL4PL1M6rcvIVm9jH5jBT4W2uiIj4oI6/
XES000QadlUbGh6Uxc++LxlqlE0OXDPoya5VAzO7nivHpba4tIba+IRsPQZTJ2fiI0rx0WW4defw
lAWKR2UZW4qNtFzklmOBeqTlJtKMBTMQbXthkjUDjkWvmlCWl64mxjFKXxtLW6OIq0ssJ/pNLpZD
rLRd4AQw3e6Ot5a63ObW+9lxpbyRkw+2ljrLC+X7yuBpa095Pd78uOyu7PSe3k7k1tvzHLHzNou9
wdz267FwAdqFPiuvOxbfyvBzfWm7IPWuhYWNxV2Pz8y64KtIrsoqEMeLZR6+giWuzPZ3cs37r63L
65veSkPvfcPqU1+JtPq7d17dqdUWCjv39ZkvAnlqD9KdpxJqCAIYs/y+a81xR54DbRw0id9H3AMA
f+n5MZ460T827zGLNyjKF2rYG6FcKKzeAEd/4jdXDr7PRxgUtCdKhXBpT0YE0USKYwztyZ9d+2+I
skTarz/Fh3dcaIMGO4HOOHVNaSIhmkhPR38I1x5Mr8K0lWXPyKDBjsxhJ7PE0eV1Splm6MOacONN
uAO3jAV57/API63ZiFUYXaqQiz8PLDJbO/eCHN1A5HoEX9yFy134qS4/nR7pIDyUTfhndRsExewx
+XN1NT9YBQmyWwXBc1HdLA42Drf25KsCiJvrC/iTqyzPd8rL5dm6wv0r8oXNAIDzx2W4o5irHnab
SI/FcEccOZFms/puqbT9vdB+LBfUhb4jWmMI1v+78oWWbL6MofgukRGWSzhMd+5fdsYw5Auw9Xw7
r7W8LpEgoR4Lx1YO58qP5d3dtW/gK+LvSDsdV4UybOTR5OvoKG7G9kzHDRY4MrGRJyPsGNiWSI9E
XmMudwQ+NhGOjUReYxJXEB+Lu8nxiGtEHBuTuIDDMMgLD+bu6Jgyd0gqgd1S+VxAl95xKnef2Uzl
WlIltfRSP8A/F1JLX3+e0IN3jOcmKzBKXsufpLKvHxoeqexgSzGVP9Dvpuj6c/n5p+JtZyk3GNk1
XT/FNP38oxnrPj//hJbqmDbyNLToM9STR9EoxzNiEGJTcL9GDD+WD3ZkjLf9YwyNenpGTCIdduQw
+cgGxifSUzIl/kUfbLT1ZvnHgKgye+P4x9rdXuVyQ7olBklFnxmqxFZhWSpg749tqyxkSs3UQzaG
kAF6MX+bkYK51aZyY0Z33NYGY+A5v9AYlL7Up0aED9ZxRf7mzLg++efm4XL+YjxE20Ib+bu1WNlq
1f7E4OjkF/STq/RTG43r8c+SGAuOu9zbVKd4Oa4U2xpzub3ha1Udn4+NvFzTpzTx/oYvF2Pgp7G/
4ctFW2wa+xu+XHwxZxr7O5avbwJ0Zu1u7BOrcZdLdnd8f/IoywWLL3B/TR9Xe5Y+l6cj7eddAiPz
Q8+VRM07L3+ZV6eYHy66PpR+nQgqwqd9eaG+0M5jOhp+51kmek0ijTbdGf2SihlLn6dUv/l37ZCa
KClLDTJ92yg89XUgLe4SdYlsE46y1nGtgEja1fyRI2mFjH4nOus3ArzT23O25v0+7+tgu0h1ABCr
3O7yTmQiLL3wg9iWIXtVbK5fYaDiaafYXFpeJ6aZVXb9a5Xd9YrNk3bOjoTE24+ODx3ZSzJTcNVS
Fh8V0lOmwFz5OUe9PGU9caTPGhUrratjepMrQ9OkHL6uCTn7TZ/FzZvFmkW4PIm4g4n6n/uxnmIh
eyCqJ99mtL8w5CnxvfJ+coTpEjM4mzv320dZGmKIujtGfH1v++7BxumvzNvc+SNfm5F2yXxcyMd3
bRA80yAQPs9sENw7IIC14HxoIHxrXQsImyIFhPRq6tUCglR0QICz+fZe4OsGAcFkFxA2lr/bFhAW
024g5G0gmIOaKQZkS0JA4GSmrA0s7B+mHCCkpP7DfBw82Fg+HZiIvZ09tEGw91SY+XNFaJ8AoZAP
xAPM+12woLjMB6BSSAeoXfxpZCbpwrxTJawD2JfwLoz7ICIpIqQDfiZnWUljLsN4izOygxCqNLMX
J1lGVSpY3HLcZVwtFwORytOBIcX8XTxvcnG7YHKnpYWvjEPbzltp8ambX+La2ZHYQyLt60IfLE7C
YfilUjrn6cCEWNzdwPyXJeYc6A7oOZAO6HMxTD3MR+1GbfXY6UJ8aPEa3cGzWmAhdiIdfxmfa8Ux
icv0jmJeDxcJiRDa4PNz+7yh8M3s7m1bHSiziw898dcFsd3t36zZsvKHd1q6nq/DdtWZaAShV5VI
eye1e5XJTcJ1+N3nghdBLByLi6a7n1Ikgvjn4IZYd5mJIrGXgVkBLFACjsVdxl6+Mi7XsXBsT6ny
E1H83sa5ECmRe+tF3u5iTxoUrlapLt6e0xNxHRjl7TOXi4BExBy6PJvr2HMg8iUMEu9zan4ijHjP
rxVsv+V4jOtdKcXhOgyJTEwumc8QJdHJHSLDa/nUu1TeyL3ckiiC0tOBPmvmQcmbeTv78lF46tf7
Rpbf4tbjlueU5yZDcm+oRJ2d5+VVMwnmpNE284Ruv/PCy159iQRmG0l/T/0vkrdTIIapuHE1QzI7
F8itEuROyNkFcpUUzEfKGjlIO4+bHfhzOWdkbC6snf+S2Rp/PvUbRiqnY7CgDP+084DoaYJgfaXy
K+l8R5B3di7lIZ1LCSLIzqU8LNAVn2sfVLaRUwHM+ssZ5ThrJhNVZ+w00WM6TRS4oJ0mekyniQJj
wrS346KVznXMGZmWQOqoYB1bEURId3bfZzmjEdABYuhZ3tb55wyHLZQVzIxNpYT9nHF4rX+Pf987
IX8KZgLn/QNv3tjGFe8queLRxTfS06WRHSVklWUbMJcFVgJgVPqfKz0s4U4AvCxO3KO7P866r8/w
dxRn+6u5q5Wesn4lHW+pT/WMmd55f5Ey8ffuQbAp4tVBLyE7rH9bC79ZorM499ZQhg==
	]]>
	<![CDATA[
	31j5YkL5ft9IL8MgZtn81boSzF/Dh2fDYbKTrb2Yv4RPTDm7kc2MzftN7PG+gC9tdYSXVtXI4RVe
hud8wsykfc3eftnJmgKdrLlS/2NXSHYO3Ru1ltebVCk8P9aifVeG7Lz9jzfjVkwP9+0kvKeiQefz
wpWRRijOrzzI5q9yzU4xfRJNiInz1z9b3vmclC6fKuXWzPvW+eXjws5bfvMGs/dWyUsEZg7koKsY
yagGM6u8yC7/V3HezBa0SOmobX540lg0oLiwdrFoZplXhi3CqdDTwJmc6manZjAXsDpxS/YyhIbQ
AMS7xPYWjaHw5q9EWijnH3Iky9xOJs+TxGmSao73VNza6Y/WVbBypci+rUfe5/DmizPzsifnBiqu
uC4RLg/qSyazbPLf9WWyjAzw5PoDmTIq4sgKDo00YKLQmlmM65WCjeJP4pz+3TIyKZGFOfnIwMKQ
dgx5AHysYK5vdzPn5FKafHq3kseMTM7k07vVIie/HW6Y3IskUSpVG12PrYwhZGFW8s7W/15PaJwi
JTVR4JLF82Gr0TvpNT+b7eRSYiVR3Nrn+at2vVPpNRqXjf8Myp334U+jPUguJ4tbF6X9fU0uN947
9UaSPCkmv6qU28PADzNIgL7iwxU9YCR3lz/03e+92fO1WvmDu1v3xhZkxb01knWZSGMYwKqRXbT0
1fzCEIJCKjdcvsDsoXIqzx0Jhh+OcXkKFZxxr/zcr+ZfKx31RuTqNJ8jYbyg+ay9bS11jw82D/X+
ura3elOodO6l653e4z1Xvq/cXVbWttbeyZ0HsfNPnYtC6AvmXYlT85hmKuFar3Gl5dRcWSsaOVFQ
doDRE8dGHAVUbFBZp4u/sz0U/5rbG50zWRe/WOJXTLytvLxYWHHascjmApS5z090S17/mnc+fM8U
DAYyp/8MMHm2aCQoA11mzF9/GnhVwl7WCrD9WPjFQJS9nPnnciZvkiT5syqZXXxcLQ+sHOd9ziEM
oLeBbpGXmnUqyPwTaatqLUdV1eZKa1ZFyVGtnoTt+6sNq2K/SJOfk0m8fsLbFc+223V3bdEppWG3
W1qiKqiRd/cLyLgXgUs8Ev0pC8T5ZwgV57yRvrxxlYI/TzeNnhNpcvkGuYATSitEtVoE0m5sE2zE
UwvUUqsaX5s5ga09PSkil1yCAX7n4M8r0u2isTnF0wfR1hpyzi0QJEEQPdN3VQcwr9Yo5Oz2Pl8u
1lbnlz/bC1eV1R3pj3NxSc641sTgiDartPilfQuPDkylNtMuTbFH1+ly9kA707XdRLqyudC4LO/X
11ImPd3d8vYlD7Q4zrZeZi3VoibZC6/R6PV2QvTaJfPakreroq2Cvd1y/Ft1Pwu/QDEzpNfbs7Cu
7wuwV2810fpVl0gX5tZ+n5Me8+TyMfjz1hKZ3w+c9euZp3b/TVjYqK6b8/mui/ZE34TnlPhi6g1H
v2nrHogfhQrwajxnP0pfSuVku6XNahTLNBz/wIQSaeu6AOsf4yIu6842EOa3jlR6N1Fl8Mzxu/xm
Bn7VeOtX3VHQ3k2BM/gjmZeB0fORB9eVxez6inqdnzmqvB6ldUNZmX/pq9zBbg51rifF1JBuuVlX
rIP/Eh3z4rbqsuvSXFb82eJTZYhhZrdmQNnRzS2KiYzJN4fLp8hQ94CXbly6Q8t0I6rMuWTaPDI1
tgxkicFBdx63iDW2aGk2F12zCWbDmnflSBnnrhxbI1nAB8d+kVvmbG6JGg3FLe86BdPo2kw9mbZV
qYA32p0uCU/D1f1i83ZQMHTB5tJyjlyVAXxs54B1zRo5SPLtPlZdmddQeJgrIQHgqtaUD817GcAk
w7UcFp0rHlxctcrBKKbW4b1ER7EveVi015clRq6JfMBLjTK8MdXgoIRvgp71x1CO9vIVNMiPefrq
EeoSnTi3f9H3hclezHEzJrzYzEI/YsTn1i526iGHgquHxuVqxqli6fJNcp0qynuzv8rwyOrgNe0+
2CFXW72d/tLHn/fCge/4c+3uxz7+vPIff97RyS/zcqfiumbYOLraf3C6uDC6sCjLsH9MFKi8LAjZ
n20VtfUM2MufHCotWbOs9rtoln3P5FD3lKkLTuq+sMwJTkmICWSfdiJVmheNPdFHj62r46Cjx4yz
L3EPHt3PPrwWOhOduqEVOZmrktC+CYRy/8IGwSMNguHDiQ2CWwcEBh9bigEEcfMskzGBUNs4cYFg
uR9+AI16cvjRI3/Qn+SIh7zGZIaMjXcEvWB40qhTYxYiQQeJdHAXFDaGdRHYgXOODmsZs4udx/VF
Gvxh9GDsi6+L2sxubpJl0AgJHQRRZWgX9nF6jGWQDhJpbxfAdwqTLAON72LkkX54F+SVsJGxktJh
MjRejkrdRgcUVro6sNJEortw8HJcDpOh8ZLuIu5uZGis9Hdg0r57Ft4uHLwM3o2wCA282orCy3GQ
KhMDK83glMAuHLwMAWWYyKO5JbdXvnizurhre+JyHOTjKpfb9mzvnrzt4uFYWAgQjWOjQtbAsWwQ
jsUllayDYywEsXEsbBke3jcygmTdODbWMhwcC8TzCBzLBuFY7DnEksiphfLjmdmF0H92d7EYl/NR
EvnW24WNl2POwS2Rx4HEIo2VkRjBlMiL4XgZzbgWx5fIxFEJBimqn3tL3ruN8wf6PeZg3aN5DCbz
SXbJCHMEm7TuHLjtFawblquKL954sKkRhc9xl1EmXG3u59Fwbyys3ZnHNdu3L8QezBOHPfEnm9co
Wgb3nn0jI54JoJej0f9edJ8JLBkLMv4sFQrmNM3Pis59jOSqQsejKGUoL6TbyU8ZytTp6/rmEuVq
pBw5Lk8/uZLUGaVK+To9dyUS25ceeXczR7kaqZF3K44v7xkAeNUj3n/7at7dEw7xO2e6Bp27Eh3n
12kpR5yJptl3up+3bNLhommdn1YLhr9xYe0W7IDTcw75D0+ugaxjwa3RLXCEdsG8aHaukDV9x3f7
ZC9ztO/07qQQ132FfsuFh5LjtKIdHI776u68OJJDzNNfgtHjFUedElytLZe2ruZXXktf6mF363Kr
fWO4J7cfFp/NI8r3W/tw7VJ07qJ1dpd4FKtLlBfS8LO9nRt3LeOLO1njV23m2nBKOmdkwva9uEfy
L4kbiPwyN/btUzb8jZbX+vuqgCyFh33TiOGTt51WedpX/V0TKFcj5c/5/pTsi2Zl6hRz46qyR7yx
SJWx/bv2GZrPv7tK4+LgoUgCFWDWW2TNBRICc5AzSql5Dz5FUmbdA0t7m5X7n71W+SPdv9xc3biV
DN/iuvwkAzc5y5gHoc30PHGlEmZGRjG97dO57pV12auRvjPN615Zl73C7k/5ulfWZa+EJ0/1ulfW
Za9GcErUda+d/72eWEmk8YTyZaddp08nE+k0lFw0BsMuNpBfthufzXa19k+jl+CTxv84+B/+q+pJ
XtCSgizDHzKWVt8SGdI2yWeT1XYi/VLc6g3KzfdBs9Ou9f5JLmPR7VH1ar+cXE4abV+g7UoyA7Ph
XqA1VGXxSPQFZviS4JJb8H+3fyeG8D8ueZLgChwnCpwk6pKsq7KS5Aq8LMkwEVmQRE6UJChRRZHT
dF7SdF0TFN6Yb0ETZUGXeF5VJJWTdSgRNU7UBV5WNEVQJTl5W0tw5gJh0H/gjwP48QeK/k7yXPIo
+fDEJes4ofMEr8BUBBFgoOoFXZJEOfmTgKkUZHchL0M7RdI54z8AIL5OoMmibBf4WijwsSY5LUoJ
XoIiTtTI15ysKHKyShVqXAGWpsNoklxQZFWFIpiJJHBYxBUkXhN18z+q6j3Bi3IB5sozKnmRK+gA
arPGNYqvyp4VTNVfKRRUWdPIlKFSVGSFqlQLkizCUqwJCEpBVK21IzQ0vsDpggrDCjxAV9apIlgB
rxQETVRZ7XmhAOBRKNArBU1SFWYVX1B4zgVzVhtR442F8FxBVjlr6RwU8pwC26YrDixhbYBrElYB
CHRZoopg5lgoqJ5miiLQI0KVqKpGlawrgqdKUQnIsVKyurfbS7ro6UqSZQfQ2EISNM90qRbvCV0r
8IJdoAv+NroEyKxpHDWOBLutADx0sSCKumhVKVAFRMjpMk4ZKjlAfKtnhSC9JqgOIugCUKxojw1w
UrSCqurOFjFawOw0VaY20d9GgjayIpBN5NSCKODgUKjKvG4U6gXYA/uTJNKIyPNyQKUEENcUh5pF
2FXAR/ghFgRO5ewF3QHS6AAtHpGcg43WdLuuigARZcAq8z+NYDsQok4AqQiaZFXJ5HNOU53P/0ro
QMeavZe6RDBcho8ceGoFXZFFagBOLmiANogsUkEAMnVWxQF2y4CTVgHimKeNIhVg33iLUHENvCIC
BXDaSG1wGsAvHAhCGyA0TrGHgqnyfEEDynCgbLBIqhcJSFsA+gVYEFQCyDufy0BXnIYU5vvOy2vv
Ev42Po6tyIQRUUhvs3u/WHhPfCSuEkSk1BNKMpNN3t4kFocgT8tEpKFsAiDpgEoK0JYoywKRaqoE
+6yAqAI+gyUg3GRVAQkmaICMKmljSi5OR0mGJZQ4g0IoMeusYpRxggzgFXmVAE1UNR1FlwBiAhig
6oKoUVllVAKMVI0T2JUAL1ERYemCqMBGKhagBAMqHAVuAQSC5EIHb4v3hCBIBV6RJFcb+MIuSQpA
K0C9mmtDgBU7fErgccKSatbwRFQ5hSD1oIwjy7ELdb4gAIt15srDPEBWOqvRFSBRYLd2C2QovE7N
w9sCVgO0JUmKFtwLD0wV0E131uudib+FvQCgVFalqnNkdYxKZFMSL5N58KJGiRiQpDpPcSleBzYJ
20197GkBUk3XkVtyzvK8bRAAsi4L1NBUkTXVUsJVaO+OU6iBmFdo2AOb5AUKDXXAS02WZda2WFWw
H8BbOBcxO9/BhnMSILl/MKfGAbxTCEJBgg010MkuFEzEA1oEsaNSslkE5YNDDUAAbQYYgUIV4Qw1
kOWa7ICUam8hK9W7XWTNgsZ0EM/AjyVK8ggCSCwJ1GmbXZI2KCIN6nSxQiRFgbeqBFYVzBhmAwCl
GaTzHSCgotJakgBUBWhl44evhc1sYCG+Ss5BbkalgMokh8N6Z4RkyKkCayV2FQ04LORBZ3GxCJTj
9NxddQIqpjiAb/8EsQDsWKT32y7C/fbiB9Xewiaqd7vIMxkKIzVQW2TR1qpdiKkB+1FFSqfxUQTQ
qaY52oDoJyhfC+RzHnpk9GLSsn8Gdo133u8OB9BR0jqWgtkfyl4dTTvZHsngLyJqUmAbghJmfaJZ
XIZ8hEJRt/UlyZkE1IiULJFdNYBtdg3v4lqoxHC6SuOGU4favIR6uo9dqggmYk/4uK1dhWzWy6yp
77wsnhrNV+WZJEt8UIoAWlCULsp7KmXg5zKFt2DZChR8yEw4XuGpFqD2ggYoE+3eUJzQhubQXIS5
2IXAAjhONUwvuxAmwwEInO4VIApFo7oH2aOJ2BdoTKgcWUSuUVUATNAPQV/UWN+BjQ==
	]]>
	<![CDATA[
	LXAabY4iDsmaTEPArdCqmqlXo90Ow4IG5lQCFYicSAl70J5UDvcGqUBEsYMGh6wpElX0bpjVhFM4
7cBUhllKpFN0dDidgsakwvwNbUrTBdqsBc4hq7JqLFJG9w3aJSrADYqAS2qq6EAU+BOonJq/5t2w
jxHp/V9xGtontMsBmKfC6c4EUemXEb6wh6qgGcACjqEqEo3TwDg1kVjGsHpNMRZk+CeAOnRQMq0x
FKoKDFcVpKEl0YjZR38HfNPmNbJRJQoCqVIVl1FKqsAENroE69RlzlLfUWa7XaVTxhe04HnVMx+6
xTuaqhxsDkct39NGUwugJ9rGtuF8UHXBgasGfyuKvQKN2NygtxA0h0pRVg1ikgRKm4EKUClEgwZ1
QA6qBLaHpzaulLCrkE4liVA+YBJai9bEJELXEtCmnIQt1B1WrBsOMUnFHVdhJ1SXd8FmJqWErBvu
OfM/N6fxV1Iqor/Sqz7D5FTNduwgHL0qONI071gcOkuRB8JF5dXqRfS3QQVM5lS6hWcm/haUPumv
tG2XakIUQVypHpxzmTwiuhVtGW0aX26zCeAgc/QG+I0v0F0ACWT3JFxteHRPuKwzy/zz1VCKnK+O
2l4RKFuzzX/0a9G2KOyuYJOhQCMGOv5U25cpGO5QThdVZhXoVESiwFx8lSJxQDiOpCqjjQBUpNIm
pm9igob2IrAv/4LsKgYk7Lqqv47Sdr11uu7yNyFReLYOJLsC3MFqofkRwNeCgYW+NlV/G4a+6W+D
ktCZn5z0ERTwDl5yvG2anyx9Ld4TPuL2tfExCN9M/C2862ExKNgQWTP83IxKdLSDLWXNXCas1ub2
KhG1aITB6Ap6bWhJY1fB8oA/gDFj4xL9nYiuSLtLkTGov4U151LCV8nYRH8br+oO3F0R7G9g8j61
37eJDONBIr5TSmr4e0FnF2/rc7p/Jv4W/k30tUF9z7D9qoxKWBxQiWNhiSDc0EVn94iapKBqDnMU
0cNsa5ZEMnpavCdA3UPlKaSNXxL4ZuJrYS+EJUiIMasb/NQnBGzzF43EguhWluxK0Bmpkxz0ONvG
NqPKcev4Kylfor/S5x3wzYhyLRQA2SnUc6oABjyoks7hjGB6OXAlDDmLVaCGJ68ZsFNEdLXTsoHR
Bh00qFr791YBU5RH340fNewqwAkfZtmVfrS0R2NUeSbLQnlKd2JUejxfPsp03GUMpclxs/n4glPp
50reQRktHDXJXykAZMHOp3aI0QY2RpMBNfwMFYwnWATHYsR2FSzIx8Cd73zc3xnNX+WZLEuyUBoB
OYBzTnoEd6UGlTaOE10CLUMZvTxg7PE8XQO2OZkSKPS6pNuohrJKA5YgEjUcTA7JRlGChzwPMoVS
ckGlBSlCnwACsfPE5AB9WHYd8ukaHkXrDhcvJXxtwOIQAYscPl5NoD9HEJ11sdoAyqiiqoa0waXg
qY0zEiiHgn2eCDvobwFWjOQcHypoRPnaoBWt2eNAL76Z4FGxw6vFpH893hZopsPsFD6kDXBLQcGT
Y8dR52uD2KWLouND8s3W38K/Zn8bL+T8M/FC378ebwvjHFuQFZG1v3YdqLmy6pwTC3QdSieYOuUR
4vgCMWjxByfrsvFLEiSR/JB1TSHGPQYGuIiZUwpgi6vG6aso2xNXjcNIQXOdVHOi7fZCQ4tXkado
FE1jEenOV1clIQwi8XLAD4AT55hWoMDJzkEo+mMsyYS/dJgFVQVLpe0R9NDg6byAdSC1ZSR27BHm
avhoNIWnzDgYXKPYDmkh8aoRJwKz5un9xUrR8JBBFegSklHEcWYRsHaeKsIuNM+EnfZ4nq3imTmn
AzORqHNeqJFEjQYABpDo5JQBkY4XRZGYYpqheUjeo0KwgsEokyh/G8BNVmSzRnbZuiDBgO95v6bc
ZxgooLlOkkSMSRGlsBYggjlnTmQcXxuwqXQBUYBMQZapKQB7Jqc4ZOYOo+apKuwS0cE2UDXPdyov
i2aRpBhFoqQIRhEdflMiPeFZOTWMAvjNmTazxtPn8lilGYFHYEiAzkoVlQhiyxzSpV1YJW5DTSYr
sz/m0DFBu5xFHahVoLykvhaSABDTBSOQxlcJBCXJZgiQMZikm0EczqTsIpgp+qF1lW4HMwX5r6q0
Qw4rgYoc9gKimgN2CzXI9GlEQXWNkyhshz1H+4RMGLgwqGSCa8KCRKnz6MnmdZHCENwVxXCU48kP
xg2BsmZEM6Gj3CoEUuDpAJ0qVYduXoHwQFBe3FgGZKUqPEJM5mElSfTFarorGAhrQBWn8I/DmBUK
s9Eq0YjWiIFMIiFtpwi4pioZJoBVSPi8YuMakWmuOo8MACSTRIrRMtughGNKIIAXED4lo3xSzNeC
IQt9bXwS1Z6BTxr75s+Q+wpR1ELaGDE0om73wxpJAYaiUUF4/ln6WjDW6mvjg5hvJj6o+9bDkPsy
ag8CH9xLNaCNF3c8bVAfcB3WVAl8RZGOL+Rkz4GOQhxc1BJ4jA1EmYPucElB8kAprprHFioIXk2k
znjwvFdSRON0A5gJFe4oCNCBjnQGijx8SYlb2iXoO4OjfYLeSt8pJLuN+wwTWwC/EugW7vNPXsfI
RoqFMU5P/b14j179M/Ee2/paMA59/W28LjtfWI3P7ec7tGY4D30hPv5erPN9/wzsGr+fya5jOE99
8QfMNp5AKr8r1xuF5XMH++O0KK+Mv5LCOCdgzFUIPJ6ngy3sSgGkqc4JGsNHbtd4PewwBbvOds1X
6ULLle8f2D4AYES2lRIfCS5ZTuBRqWPKk1NWEY0a5yzmh9EGoUKCbBmu+LA6b9/VGONXYab+Y2o8
4yYWDEaXg2znaBvernRkvCqYjhGnyD47p/UEGAiwQzT0HHLibk2O91UampFdiEWCLlGsC6skjWKh
0ILXbGTSjBaiwlu6lu4oUdbnJOYc/TSyZLaXVSriDRU0h2sIZgt3iCooYTwn+6uqThUdR2CVOSAD
9BFI7K4D2OANwbhO6qgeg29EIwsAtFdBpAWCXYlqq8DxlA6lYpAHRSGMFqiPcwbofJUySBFNN+SC
vxKQTtF4c1jFFXcBSjBGm5IqUaHD5qDK5Xw2hvW08UMYSJ2TNGG0Nng6LQrGdvgreXeUM2lhS3cz
IF8WXeYi2JigCJEaw9RBT4pdaEGyShd6NwA4ExoTzijO7vl3G5FAR1+8YivTBtIYRsQPo1LBLXPF
OzPbaJzgcrJxmkYHOyigY3Bgv2IVKH60woUr41Vq/3QwJlRFdANO5QUHtDrGiwhGiBFY/DwzFgIP
1qhoBPTXgFYBZgu1Zfi5QjkwMGpcoBEPdlylscvfwgsfM/bc1UamQ/J9laCuweeGq0eQNZGYZ67Q
OH88hrfFO0bkewLmfb34N94aOgQnUCIBJ1dAC7X6lihp8oMuXrCdbNCLLlHjr/TLEX/vcdpQg3zQ
pjuHe2wIIOIHFKiINLuyShyWkuOBMPQBBePXidary7oRsQRyQjRcPkbIkSASTYYkhXAeX7BTWU1o
INF1t+PbqgRVjKPMaZ04NTmeWq+/BVA5ejKIj9tXiRYciWCosipFt/sPWoBNYLcwsI1T0UkHc9Yl
R1NRiQeBQ8TAYfGnc/CgEBVHEjG8A7NjFEfblQiX1mWTLr2Ya1WhJ4RDX5NOFZI0H9e2SEijJOAb
KEcE04eqAm1eEwwTBMmKsAQoBO1QcFEsIDrtmwAIqLqZSOKpot003kpgp5qmqIYDCPipRiEUAwFL
BC8Bb3TRiDACW08heGkXesOVqnQdhkOoVAwapnCJdJgtKAeyYviIMMFGpzQiTF1SZFccHbQReOwY
xIrkCogBdZB3R8SoAEI6Ps8Oq/PWoFcTxgYGzfgKA7UV1cyxojOhkBQE0ZCHoMfRLNqsofUEqwiQ
0zBFsUCmV4uOL1nVjCqwcjyKA+2ZM4bwtPFLfns3WXUAP8lW+qg6ksPEiVS0KYk5M46hfHhA0AOE
h+rSgQSU+YpOafnYRgfFwjiVI6lqTkgpMA70griKPB41OiwVND3dDPQ3CjHmksSxGGe2UCSJlKKM
VTpJQGRVASkKNCaw2ogyve/0mGbapj03DCwVkdfSE5aMXCOXQ4Su02Xe3bsrWlfiaf+P1UL2tKDN
uncD3CIdxowMSOGobUZtR6btGrDeXHErhK5dkaHoQafpEcfBWEjaKkFvLX2yii0Ay2lWqKHnBqgC
s75ANPG01wdZNYlvxPlJGq+5vpNVjJ3/K4GcwQMCb0Yrppa6/KbAUTVgfs7E/C0sAWS4l9yVtuiq
MirRCJdpZqSiX4SnDBjAeiMoIppYCElhiqcq8yyDmWTvSnRWhV/R8LehDWe7c2Yhy0QW0GwDqe/s
hn9efm+GvydGwpszBf8goZWseS5eJa4SupnuV9020ul32nWS9J7PJ9Lp09pn47JXa7YavcRnv/ZX
I1lrtzuD2qDRhZrkZ6/RH3R6jWT/q/M3lsAnVvN0euekkvg/lLHMRg==
	]]>
</i:pgf>
</svg>
